# xmcd
#
# Track frame offsets: 
#        150
#        9939
#        22165
#        28168
#        41887
#        52927
#        64622
#        75661
#        88787
#        100496
#        113433
#        125306
#
# Disc length: 1849 seconds
#
# Revision: 0
# Processed by: cddbd v1.5.2PL0 Copyright (c) Steve Scherf et al.
# Submitted via: ExactAudioCopyFreeDBPlugin 1.0
#
DISCID=9107370c
DTITLE=Charley Pride - Country Music Pioneer {LIVE}
DYEAR=2010
DGENRE=Country
TTITLE0=Kiss An Angel Good Morning
TTITLE1=There Goes My Everything
TTITLE2=LOVESICK Blues
TTITLE3=I'm So Afraid Of Losing You
TTITLE4=Oklahoma Morning
TTITLE5=Happiness Of Having You
TTITLE6=Mississippi Cotton Pickin' Delta Town
TTITLE7=Crystal Chanddeliers
TTITLE8=It's Going To Take A Little Bit Longer
TTITLE9=Help Me Make It Through The Night
TTITLE10=My Eyes Can Only See As Far As You
TTITLE11=Kaw Liga
EXTD=
EXTT0=
EXTT1=
EXTT2=
EXTT3=
EXTT4=
EXTT5=
EXTT6=
EXTT7=
EXTT8=
EXTT9=
EXTT10=
EXTT11=
PLAYORDER=
